<?xml version="1.0" encoding="UTF-8" standalone="no"?>
<svg
   xmlns:dc="http://purl.org/dc/elements/1.1/"
   xmlns:cc="http://creativecommons.org/ns#"
   xmlns:rdf="http://www.w3.org/1999/02/22-rdf-syntax-ns#"
   xmlns:svg="http://www.w3.org/2000/svg"
   xmlns="http://www.w3.org/2000/svg"
   xmlns:sodipodi="http://sodipodi.sourceforge.net/DTD/sodipodi-0.dtd"
   xmlns:inkscape="http://www.inkscape.org/namespaces/inkscape"
   height="512"
   viewBox="0 0 64 64"
   width="512"
   version="1.1"
   id="svg55"
   sodipodi:docname="PIC.svg"
   inkscape:version="0.92.2 5c3e80d, 2017-08-06">
  <metadata
     id="metadata61">
    <rdf:RDF>
      <cc:Work
         rdf:about="">
        <dc:format>image/svg+xml</dc:format>
        <dc:type
           rdf:resource="http://purl.org/dc/dcmitype/StillImage" />
      </cc:Work>
    </rdf:RDF>
  </metadata>
  <defs
     id="defs59" />
  <sodipodi:namedview
     pagecolor="#ffffff"
     bordercolor="#666666"
     borderopacity="1"
     objecttolerance="10"
     gridtolerance="10"
     guidetolerance="10"
     inkscape:pageopacity="0"
     inkscape:pageshadow="2"
     inkscape:window-width="984"
     inkscape:window-height="666"
     id="namedview57"
     showgrid="false"
     inkscape:zoom="0.4609375"
     inkscape:cx="128"
     inkscape:cy="169.22034"
     inkscape:window-x="152"
     inkscape:window-y="16"
     inkscape:window-maximized="0"
     inkscape:current-layer="svg55" />
  <g
     id="Semiconductor_transistor-chip-electronics-27"
     data-name="Semiconductor transistor-chip-electronics"
     style="fill:#66cdaa;fill-opacity:1">
    <path
       d="m22 55h6v2h-6z"
       id="path2"
       style="fill:#66cdaa;fill-opacity:1" />
    <path
       d="m35 49h8v4h-8z"
       id="path4"
       style="fill:#66cdaa;fill-opacity:1" />
    <path
       d="m23 59h4v1h-4z"
       id="path6"
       style="fill:#66cdaa;fill-opacity:1" />
    <path
       d="m9 59h4v1h-4z"
       id="path8"
       style="fill:#66cdaa;fill-opacity:1" />
    <path
       d="m8 55h6v2h-6z"
       id="path10"
       style="fill:#66cdaa;fill-opacity:1" />
    <path
       d="m21 49h8v4h-8z"
       id="path12"
       style="fill:#66cdaa;fill-opacity:1" />
    <path
       d="m37 59h4v1h-4z"
       id="path14"
       style="fill:#66cdaa;fill-opacity:1" />
    <path
       d="m51 59h4v1h-4z"
       id="path16"
       style="fill:#66cdaa;fill-opacity:1" />
    <path
       d="m50 55h6v2h-6z"
       id="path18"
       style="fill:#66cdaa;fill-opacity:1" />
    <path
       d="m7 49h8v4h-8z"
       id="path20"
       style="fill:#66cdaa;fill-opacity:1" />
    <path
       d="m60 17h-56v6.06a9 9 0 0 1 0 17.88v6.06h56z"
       id="path22"
       style="fill:#66cdaa;fill-opacity:1" />
    <path
       d="m49 49h8v4h-8z"
       id="path24"
       style="fill:#66cdaa;fill-opacity:1" />
    <path
       d="m36 55h6v2h-6z"
       id="path26"
       style="fill:#66cdaa;fill-opacity:1" />
    <path
       d="m35 11h8v4h-8z"
       id="path28"
       style="fill:#66cdaa;fill-opacity:1" />
    <path
       d="m50 7h6v2h-6z"
       id="path30"
       style="fill:#66cdaa;fill-opacity:1" />
    <path
       d="m37 4h4v1h-4z"
       id="path32"
       style="fill:#66cdaa;fill-opacity:1" />
    <path
       d="m51 4h4v1h-4z"
       id="path34"
       style="fill:#66cdaa;fill-opacity:1" />
    <path
       d="m4 25.08v13.84a6.991 6.991 0 0 0 0-13.84z"
       id="path36"
       style="fill:#66cdaa;fill-opacity:1" />
    <path
       d="m49 11h8v4h-8z"
       id="path38"
       style="fill:#66cdaa;fill-opacity:1" />
    <path
       d="m36 7h6v2h-6z"
       id="path40"
       style="fill:#66cdaa;fill-opacity:1" />
    <path
       d="m9 4h4v1h-4z"
       id="path42"
       style="fill:#66cdaa;fill-opacity:1" />
    <path
       d="m7 11h8v4h-8z"
       id="path44"
       style="fill:#66cdaa;fill-opacity:1" />
    <path
       d="m8 7h6v2h-6z"
       id="path46"
       style="fill:#66cdaa;fill-opacity:1" />
    <path
       d="m22 7h6v2h-6z"
       id="path48"
       style="fill:#66cdaa;fill-opacity:1" />
    <path
       d="m23 4h4v1h-4z"
       id="path50"
       style="fill:#66cdaa;fill-opacity:1" />
    <path
       d="m21 11h8v4h-8z"
       id="path52"
       style="fill:#66cdaa;fill-opacity:1" />
  </g>
</svg>
