<?xml version="1.0" encoding="UTF-8" standalone="no"?>
<svg
   xmlns:dc="http://purl.org/dc/elements/1.1/"
   xmlns:cc="http://creativecommons.org/ns#"
   xmlns:rdf="http://www.w3.org/1999/02/22-rdf-syntax-ns#"
   xmlns:svg="http://www.w3.org/2000/svg"
   xmlns="http://www.w3.org/2000/svg"
   xmlns:sodipodi="http://sodipodi.sourceforge.net/DTD/sodipodi-0.dtd"
   xmlns:inkscape="http://www.inkscape.org/namespaces/inkscape"
   height="512"
   viewBox="0 0 64 64"
   width="512"
   version="1.1"
   id="svg4740"
   sodipodi:docname="Processor.svg"
   inkscape:version="0.92.2 5c3e80d, 2017-08-06">
  <metadata
     id="metadata4746">
    <rdf:RDF>
      <cc:Work
         rdf:about="">
        <dc:format>image/svg+xml</dc:format>
        <dc:type
           rdf:resource="http://purl.org/dc/dcmitype/StillImage" />
      </cc:Work>
    </rdf:RDF>
  </metadata>
  <defs
     id="defs4744" />
  <sodipodi:namedview
     pagecolor="#ffffff"
     bordercolor="#666666"
     borderopacity="1"
     objecttolerance="10"
     gridtolerance="10"
     guidetolerance="10"
     inkscape:pageopacity="0"
     inkscape:pageshadow="2"
     inkscape:window-width="738"
     inkscape:window-height="480"
     id="namedview4742"
     showgrid="false"
     inkscape:zoom="0.4609375"
     inkscape:cx="256"
     inkscape:cy="256"
     inkscape:window-x="0"
     inkscape:window-y="0"
     inkscape:window-maximized="0"
     inkscape:current-layer="svg4740" />
  <g
     id="Semiconductor-chip-electronics"
     style="fill:#66cdaa;fill-opacity:1">
    <path
       d="m11 57h2v3h-2z"
       id="path4687"
       style="fill:#66cdaa;fill-opacity:1" />
    <path
       d="m57 43h3v2h-3z"
       id="path4689"
       style="fill:#66cdaa;fill-opacity:1" />
    <path
       d="m57 51h3v2h-3z"
       id="path4691"
       style="fill:#66cdaa;fill-opacity:1" />
    <path
       d="m19 57h2v3h-2z"
       id="path4693"
       style="fill:#66cdaa;fill-opacity:1" />
    <path
       d="m35 57h2v3h-2z"
       id="path4695"
       style="fill:#66cdaa;fill-opacity:1" />
    <path
       d="m27 57h2v3h-2z"
       id="path4697"
       style="fill:#66cdaa;fill-opacity:1" />
    <path
       d="m57 11h3v2h-3z"
       id="path4699"
       style="fill:#66cdaa;fill-opacity:1" />
    <path
       d="m60 4h-5v4a1 1 0 0 1 -1 1h-4a1 1 0 0 1 -1-1v-4h-2v4a1 1 0 0 1 -1 1h-4a1 1 0 0 1 -1-1v-4h-2v4a1 1 0 0 1 -1 1h-4a1 1 0 0 1 -1-1v-4h-2v4a1 1 0 0 1 -1 1h-4a1 1 0 0 1 -1-1v-4h-2v4a1 1 0 0 1 -1 1h-4a1 1 0 0 1 -1-1v-4h-2v4a1 1 0 0 1 -1 1h-4a1 1 0 0 1 -1-1v-4h-5v5h4a1 1 0 0 1 1 1v4a1 1 0 0 1 -1 1h-4v2h4a1 1 0 0 1 1 1v4a1 1 0 0 1 -1 1h-4v2h4a1 1 0 0 1 1 1v4a1 1 0 0 1 -1 1h-4v2h4a1 1 0 0 1 1 1v4a1 1 0 0 1 -1 1h-4v2h4a1 1 0 0 1 1 1v4a1 1 0 0 1 -1 1h-4v2h4a1 1 0 0 1 1 1v4a1 1 0 0 1 -1 1h-4v5h5v-4a1 1 0 0 1 1-1h4a1 1 0 0 1 1 1v4h2v-4a1 1 0 0 1 1-1h4a1 1 0 0 1 1 1v4h2v-4a1 1 0 0 1 1-1h4a1 1 0 0 1 1 1v4h2v-4a1 1 0 0 1 1-1h4a1 1 0 0 1 1 1v4h2v-4a1 1 0 0 1 1-1h4a1 1 0 0 1 1 1v4h2v-4a1 1 0 0 1 1-1h4a1 1 0 0 1 1 1v4h5v-5h-4a1 1 0 0 1 -1-1v-4a1 1 0 0 1 1-1h4v-2h-4a1 1 0 0 1 -1-1v-4a1 1 0 0 1 1-1h4v-2h-4a1 1 0 0 1 -1-1v-4a1 1 0 0 1 1-1h4v-2h-4a1 1 0 0 1 -1-1v-4a1 1 0 0 1 1-1h4v-2h-4a1 1 0 0 1 -1-1v-4a1 1 0 0 1 1-1h4v-2h-4a1 1 0 0 1 -1-1v-4a1 1 0 0 1 1-1h4zm-11 44a1 1 0 0 1 -1 1h-32a1 1 0 0 1 -1-1v-3a1 1 0 0 1 1-1 2 2 0 0 0 0-4 1 1 0 0 1 -1-1v-23a1 1 0 0 1 1-1h32a1 1 0 0 1 1 1z"
       id="path4701"
       style="fill:#66cdaa;fill-opacity:1" />
    <path
       d="m43 57h2v3h-2z"
       id="path4703"
       style="fill:#66cdaa;fill-opacity:1" />
    <path
       d="m17 38.126a4 4 0 0 1 0 7.748v1.126h30v-30h-30z"
       id="path4705"
       style="fill:#66cdaa;fill-opacity:1" />
    <path
       d="m57 19h3v2h-3z"
       id="path4707"
       style="fill:#66cdaa;fill-opacity:1" />
    <path
       d="m57 27h3v2h-3z"
       id="path4709"
       style="fill:#66cdaa;fill-opacity:1" />
    <path
       d="m57 35h3v2h-3z"
       id="path4711"
       style="fill:#66cdaa;fill-opacity:1" />
    <path
       d="m19 4h2v3h-2z"
       id="path4713"
       style="fill:#66cdaa;fill-opacity:1" />
    <path
       d="m4 11h3v2h-3z"
       id="path4715"
       style="fill:#66cdaa;fill-opacity:1" />
    <path
       d="m35 4h2v3h-2z"
       id="path4717"
       style="fill:#66cdaa;fill-opacity:1" />
    <path
       d="m51 4h2v3h-2z"
       id="path4719"
       style="fill:#66cdaa;fill-opacity:1" />
    <path
       d="m43 4h2v3h-2z"
       id="path4721"
       style="fill:#66cdaa;fill-opacity:1" />
    <path
       d="m11 4h2v3h-2z"
       id="path4723"
       style="fill:#66cdaa;fill-opacity:1" />
    <path
       d="m27 4h2v3h-2z"
       id="path4725"
       style="fill:#66cdaa;fill-opacity:1" />
    <path
       d="m51 57h2v3h-2z"
       id="path4727"
       style="fill:#66cdaa;fill-opacity:1" />
    <path
       d="m4 51h3v2h-3z"
       id="path4729"
       style="fill:#66cdaa;fill-opacity:1" />
    <path
       d="m4 43h3v2h-3z"
       id="path4731"
       style="fill:#66cdaa;fill-opacity:1" />
    <path
       d="m4 19h3v2h-3z"
       id="path4733"
       style="fill:#66cdaa;fill-opacity:1" />
    <path
       d="m4 35h3v2h-3z"
       id="path4735"
       style="fill:#66cdaa;fill-opacity:1" />
    <path
       d="m4 27h3v2h-3z"
       id="path4737"
       style="fill:#66cdaa;fill-opacity:1" />
  </g>
</svg>
