<?xml version="1.0" encoding="UTF-8" standalone="no"?>
<svg
   xmlns:dc="http://purl.org/dc/elements/1.1/"
   xmlns:cc="http://creativecommons.org/ns#"
   xmlns:rdf="http://www.w3.org/1999/02/22-rdf-syntax-ns#"
   xmlns:svg="http://www.w3.org/2000/svg"
   xmlns="http://www.w3.org/2000/svg"
   xmlns:sodipodi="http://sodipodi.sourceforge.net/DTD/sodipodi-0.dtd"
   xmlns:inkscape="http://www.inkscape.org/namespaces/inkscape"
   height="512"
   viewBox="0 0 64 64"
   width="512"
   version="1.1"
   id="svg5391"
   sodipodi:docname="Transistor.svg"
   inkscape:version="0.92.2 5c3e80d, 2017-08-06">
  <metadata
     id="metadata5397">
    <rdf:RDF>
      <cc:Work
         rdf:about="">
        <dc:format>image/svg+xml</dc:format>
        <dc:type
           rdf:resource="http://purl.org/dc/dcmitype/StillImage" />
      </cc:Work>
    </rdf:RDF>
  </metadata>
  <defs
     id="defs5395" />
  <sodipodi:namedview
     pagecolor="#ffffff"
     bordercolor="#666666"
     borderopacity="1"
     objecttolerance="10"
     gridtolerance="10"
     guidetolerance="10"
     inkscape:pageopacity="0"
     inkscape:pageshadow="2"
     inkscape:window-width="738"
     inkscape:window-height="480"
     id="namedview5393"
     showgrid="false"
     inkscape:zoom="0.4609375"
     inkscape:cx="256"
     inkscape:cy="256"
     inkscape:window-x="0"
     inkscape:window-y="0"
     inkscape:window-maximized="0"
     inkscape:current-layer="svg5391" />
  <g
     id="Semiconductor_transistor-chip-electronics-24"
     data-name="Semiconductor transistor-chip-electronics"
     style="fill:#66cdaa;fill-opacity:1">
    <path
       d="m40 46h2v14h-2z"
       id="path5370"
       style="fill:#66cdaa;fill-opacity:1" />
    <path
       d="m30 42h4v2h-4z"
       id="path5372"
       style="fill:#66cdaa;fill-opacity:1" />
    <path
       d="m42 35a1 1 0 0 0 1 1h1v-2h-1a1 1 0 0 0 -1 1z"
       id="path5374"
       style="fill:#66cdaa;fill-opacity:1" />
    <path
       d="m39 42h4v2h-4z"
       id="path5376"
       style="fill:#66cdaa;fill-opacity:1" />
    <path
       d="m31 46h2v14h-2z"
       id="path5378"
       style="fill:#66cdaa;fill-opacity:1" />
    <path
       d="m22 35a1 1 0 0 0 -1-1h-1v2h1a1 1 0 0 0 1-1z"
       id="path5380"
       style="fill:#66cdaa;fill-opacity:1" />
    <path
       d="m44 24h-24v8h1a3 3 0 0 1 0 6h-1v2h24v-2h-1a3 3 0 0 1 0-6h1z"
       id="path5382"
       style="fill:#66cdaa;fill-opacity:1" />
    <path
       d="m44 8.35-3.48-4.35h-17.04l-3.48 4.35v13.65h24zm-12 10.65a6 6 0 1 1 6-6 6.006 6.006 0 0 1 -6 6z"
       id="path5384"
       style="fill:#66cdaa;fill-opacity:1" />
    <path
       d="m22 46h2v14h-2z"
       id="path5386"
       style="fill:#66cdaa;fill-opacity:1" />
    <path
       d="m21 42h4v2h-4z"
       id="path5388"
       style="fill:#66cdaa;fill-opacity:1" />
  </g>
</svg>
